<svg width="49" height="48" viewBox="0 0 49 48" fill="none" xmlns="http://www.w3.org/2000/svg">
<rect width="48" height="48" transform="translate(0.183105)" fill="#81B3D2"/>
<g clip-path="url(#clip0_61926_33)">
<path fill-rule="evenodd" clip-rule="evenodd" d="M35.6331 17.948C35.7991 17.402 35.6331 17 34.8381 17H32.2131C31.5451 17 31.2371 17.347 31.0701 17.73C31.0701 17.73 29.7351 20.926 27.8441 23.002C27.2321 23.604 26.9541 23.795 26.6201 23.795C26.4531 23.795 26.2021 23.604 26.2021 23.057V17.948C26.2021 17.292 26.0181 17 25.4621 17H21.3341C20.9171 17 20.6661 17.304 20.6661 17.593C20.6661 18.214 21.6121 18.358 21.7091 20.106V23.904C21.7091 24.737 21.5561 24.888 21.2221 24.888C20.3321 24.888 18.1671 21.677 16.8821 18.003C16.6331 17.288 16.3811 17 15.7101 17H13.0831C12.3331 17 12.1831 17.347 12.1831 17.73C12.1831 18.412 13.0731 21.8 16.3281 26.281C18.4981 29.341 21.5531 31 24.3361 31C26.0051 31 26.2111 30.632 26.2111 29.997V27.684C26.2111 26.947 26.3691 26.8 26.8981 26.8C27.2881 26.8 27.9551 26.992 29.5131 28.467C31.2931 30.216 31.5861 31 32.5881 31H35.2131C35.9631 31 36.3391 30.632 36.1231 29.904C35.8851 29.18 35.0351 28.129 33.9081 26.882C33.2961 26.172 32.3781 25.407 32.0991 25.024C31.7101 24.533 31.8211 24.314 32.0991 23.877C32.0991 23.877 35.2991 19.451 35.6321 17.948H35.6331Z" fill="white"/>
</g>
<defs>
<clipPath id="clip0_61926_33">
<rect width="24" height="24" fill="white" transform="translate(12.1831 12)"/>
</clipPath>
</defs>
</svg>
