<svg width="81" height="74" viewBox="0 0 81 74" fill="none" xmlns="http://www.w3.org/2000/svg">
<path d="M31.9574 66.2315H48.9787V42.2512H31.9574V66.2315ZM45.8936 63.3218H35.0425V45.161H45.7872V63.3218H45.8936Z" fill="#81B3D2"/>
<path d="M77.8085 40.2445L80.0425 38.1375L69.5106 28.2042V1.1135H54.8298V14.3578L40.2553 0.712158L0.574463 38.2378L2.80851 40.3449L11.1064 32.5187V70.4456H6.95744V73.3554H74.9362V70.4456H69.5106V32.4183L77.8085 40.2445ZM57.9149 4.12358H66.3191V25.2945L57.9149 17.3679V4.12358ZM66.4255 70.3453H14.2979V29.5086L40.2553 4.92627L66.3191 29.5086V70.3453H66.4255Z" fill="#81B3D2"/>
<path d="M32.2766 28.0036C32.2766 32.318 36 35.8298 40.4681 35.8298C45.0426 35.8298 48.766 32.318 48.766 28.0036C48.766 23.6891 45.0426 20.2777 40.4681 20.2777C35.8936 20.2777 32.2766 23.6891 32.2766 28.0036ZM40.4681 22.9868C43.3404 22.9868 45.7873 25.1942 45.7873 28.0036C45.7873 30.7126 43.4468 33.0204 40.4681 33.0204C37.5958 33.0204 35.149 30.813 35.149 28.0036C35.149 25.2945 37.5958 22.9868 40.4681 22.9868Z" fill="#81B3D2"/>
<path d="M21.7447 42.2512H18.5532V46.1643H21.7447V42.2512Z" fill="#81B3D2"/>
<path d="M28.0213 42.2512H24.8298V46.1643H28.0213V42.2512Z" fill="#81B3D2"/>
<path d="M21.7447 48.2714H18.5532V52.1845H21.7447V48.2714Z" fill="#81B3D2"/>
<path d="M28.0213 48.2714H24.8298V52.1845H28.0213V48.2714Z" fill="#81B3D2"/>
<path d="M55.6809 42.2512H52.4894V46.1643H55.6809V42.2512Z" fill="#81B3D2"/>
<path d="M62.0639 42.2512H58.8724V46.1643H62.0639V42.2512Z" fill="#81B3D2"/>
<path d="M55.6809 48.2714H52.4894V52.1845H55.6809V48.2714Z" fill="#81B3D2"/>
<path d="M62.0639 48.2714H58.8724V52.1845H62.0639V48.2714Z" fill="#81B3D2"/>
</svg>
