<svg width="78" height="76" viewBox="0 0 78 76" fill="none" xmlns="http://www.w3.org/2000/svg">
<path d="M74.4427 22.9102H74.3197H44.4427C61.164 16.0873 62.5164 11.7729 61.9017 9.36483C60.5492 5.45173 55.0164 2.44165 49.8525 4.04703C43.0902 6.15408 41.2459 14.3816 39.4017 20.3015C37.0656 14.2813 34.8525 6.65576 29.5656 2.74266C28.0902 1.63897 25.8771 0.535272 22.5574 0.735944C17.6394 1.13729 10.6312 6.05375 13.582 11.5722C16.2869 16.89 25.2623 20.3015 31.2869 23.0105H3.86889C1.90168 23.0105 0.42627 24.3149 0.42627 25.8199V37.0576C0.42627 38.6629 2.02463 39.867 3.86889 39.867H4.23774V75.9879H74.3197V39.867H74.4427C76.4099 39.867 77.8853 38.5626 77.8853 37.0576V25.8199C77.8853 24.2146 76.2869 22.9102 74.4427 22.9102ZM51.8197 6.55543C54.4017 6.25442 57.8443 7.8598 58.2132 9.76618C58.705 12.4752 54.1558 14.9836 52.0656 16.0873C48.9918 17.7931 46.041 18.6961 43.2132 20.1008C44.1968 16.3884 46.2869 7.15744 51.8197 6.55543ZM24.0328 16.3884C21.3279 14.8833 16.164 11.9736 16.2869 8.66248C16.4099 5.05039 23.2951 2.14065 26.9836 4.84972C31.6558 8.1608 33.8689 15.8867 35.5902 21.3048C31.6558 19.6994 27.9673 18.4954 24.0328 16.3884ZM31.2869 72.9778H7.80332V39.867H31.2869V72.9778ZM31.2869 36.8569H4.11479V25.9203H31.2869V36.8569ZM43.582 72.9778H34.8525V25.9203H43.582V72.9778ZM70.6312 72.9778H47.2705V39.867H70.7541V72.9778H70.6312ZM74.1968 36.8569H47.2705V25.9203H74.1968V36.8569Z" fill="#81B3D2"/>
</svg>
