<svg width="74" height="70" viewBox="0 0 74 70" fill="none" xmlns="http://www.w3.org/2000/svg">
<path d="M69.0544 46.8768H4.26203C1.96171 46.8768 0.140625 48.8835 0.140625 51.1913V54.703C0.140625 57.0108 1.96171 58.9171 4.26203 58.9171H5.2205V59.9205C5.2205 65.439 9.5336 69.8538 14.7093 69.8538H58.6071C63.8786 69.8538 68.0959 65.3386 68.0959 59.9205V58.9171H69.0544C71.2588 58.9171 73.1758 57.0108 73.1758 54.6027V51.0909C73.1758 48.8836 71.3547 46.8768 69.0544 46.8768ZM65.3163 59.9205C65.3163 63.7333 62.3451 66.8437 58.7029 66.8437H14.6135C10.9713 66.8437 8.00005 63.7333 8.00005 59.9205V58.9171H65.3163V59.9205ZM70.3004 54.6027C70.3004 55.3051 69.7253 55.9071 69.0544 55.9071H4.26203C3.5911 55.9071 3.01602 55.3051 3.01602 54.6027V51.0909C3.01602 50.4889 3.5911 49.8869 4.26203 49.8869H69.1502C69.8211 49.8869 70.3962 50.4889 70.3962 51.1913V54.6027H70.3004Z" fill="#81B3D2"/>
<path d="M15.6678 38.7495L20.8436 42.763L26.1151 38.7495L31.3867 42.763L36.6583 38.7495L41.834 42.763L47.1055 38.7495L52.3771 42.763L57.6487 38.7495L62.9202 42.763L68.9586 38.0472L67.3292 35.6391L62.9202 38.9502L57.6487 34.9368L52.3771 38.9502L47.1055 34.9368L41.834 38.9502L36.6583 34.9368L31.3867 38.9502L26.1151 34.9368L20.8436 38.9502L15.6678 34.9368L10.3963 38.9502L5.98732 35.6391L4.26208 38.0472L10.3963 42.763L15.6678 38.7495Z" fill="#81B3D2"/>
<path d="M68.0958 31.9268C68.0958 31.3248 68.1916 29.318 68.0958 28.9167C67.4248 13.2643 53.6229 0.72229 36.6581 0.72229C19.6932 0.72229 5.79544 13.2643 5.12451 28.9167C5.12451 29.318 5.12451 31.3248 5.12451 31.9268H68.0958ZM36.6581 3.73237C51.9935 3.73237 64.6453 14.97 65.2204 28.9167H7.99991C8.67084 14.97 21.3226 3.73237 36.6581 3.73237Z" fill="#81B3D2"/>
<path d="M36.6581 17.7794C37.7168 17.7794 38.5751 16.881 38.5751 15.7727C38.5751 14.6644 37.7168 13.766 36.6581 13.766C35.5995 13.766 34.7412 14.6644 34.7412 15.7727C34.7412 16.881 35.5995 17.7794 36.6581 17.7794Z" fill="#81B3D2"/>
<path d="M28.9904 12.8629C30.0491 12.8629 30.9074 11.9645 30.9074 10.8562C30.9074 9.74793 30.0491 8.84949 28.9904 8.84949C27.9317 8.84949 27.0735 9.74793 27.0735 10.8562C27.0735 11.9645 27.9317 12.8629 28.9904 12.8629Z" fill="#81B3D2"/>
<path d="M44.3259 12.8629C45.3846 12.8629 46.2428 11.9645 46.2428 10.8562C46.2428 9.74793 45.3846 8.84949 44.3259 8.84949C43.2672 8.84949 42.4089 9.74793 42.4089 10.8562C42.4089 11.9645 43.2672 12.8629 44.3259 12.8629Z" fill="#81B3D2"/>
</svg>
