<svg width="460" height="352" viewBox="0 0 460 352" fill="none" xmlns="http://www.w3.org/2000/svg">
<path d="M165.4 70.6854L165.2 70.8861C163.8 72.3911 162.2 73.0935 160.7 73.0935L163.5 68.177C165.3 65.0666 163.6 62.0565 160.8 62.0565C158.5 62.0565 156.7 62.9596 155 65.9697L153.5 68.5784L152.3 70.6854L152.1 70.8861C149.9 73.3945 147.8 75.4012 146.5 75.4012C145.8 75.4012 145.5 74.8995 146.2 73.7959L152.6 62.5582H155L155.9 61.1535H153.4L156.2 56.2371H153.2L150.4 61.1535H147.7L146.8 62.5582H149.5L143.5 72.9932C142.2 75.2006 143.1 77.3076 145.5 77.3076C147.2 77.3076 149.2 76.0032 151 74.1972C151 78.01 156.3 78.8126 159.5 74.6989H160.2C162 74.6989 164.8 73.5952 166.3 71.7891C166.3 71.2875 165.8 70.8861 165.4 70.6854ZM159 70.8861H158.9C157.9 70.8861 157.1 71.6888 157.1 72.6922C157.1 73.0935 157.2 73.3945 157.4 73.6955V73.7959C156 76.2039 152.6 75.8026 154.3 72.5918L156.6 68.6787L158 66.2707C160.1 62.6586 163 64.0633 161.2 67.1737L159 70.8861Z" fill="#766458"/>
<path d="M206.9 70.6854L206.7 70.8861C204.5 73.3945 201.8 75.4012 199.7 75.4012C197.9 75.4012 196.8 74.1972 198.1 71.7891L198.4 71.2875C200.3 72.0901 204 71.6888 206.2 67.7757L206.6 67.0733C208.2 64.2639 206.7 62.2572 204.2 62.2572C201.8 62.2572 199.9 63.5616 198.6 65.769L195.7 70.7858L195.5 70.9864C193.3 73.4948 191.2 75.5016 189.9 75.5016C189.2 75.5016 188.9 74.9999 189.6 73.8962L193.9 66.2707C195.2 63.9629 194 62.3576 192.3 62.3576C191 62.3576 189.6 63.0599 188.1 64.6653L192.9 56.3374H189.9L181.6 70.6854L181.4 70.8861C179.2 73.3945 177.1 75.4012 175.8 75.4012C175.1 75.4012 174.8 74.8995 175.5 73.7959L181.9 62.5582H184.3L185.2 61.1535H182.7L185.5 56.2371H182.5L179.7 61.1535H177L176.1 62.5582H178.8L172.8 72.9932C171.5 75.2006 172.4 77.3076 174.8 77.3076C176 77.3076 177.3 76.7056 178.6 75.7022L177.8 77.0066H180.8L185.3 69.0801C189.9 63.2606 191.9 64.0633 190.7 66.2707L186.8 73.0935C185.5 75.3009 186.4 77.4079 188.8 77.4079C190.6 77.4079 192.6 76.0032 194.4 74.1972C194.5 76.1036 196.1 77.4079 198.5 77.4079C201.9 77.4079 205.3 74.7992 207.7 71.8895C207.8 71.2875 207.3 70.8861 206.9 70.6854ZM201.2 66.4713C202.9 63.4613 206 63.9629 204.2 67.0733L203.8 67.7757C202.4 70.1838 200.4 70.1838 199.3 69.7824L201.2 66.4713Z" fill="#766458"/>
<path d="M316 70.6854L315.8 70.8861C314.7 72.1905 313.4 73.2942 312.2 74.1972C313.2 71.2875 312.9 66.973 314.8 63.0599L312.6 61.8559C311.4 63.5616 308.7 67.4747 305.9 70.6854L305.7 70.8861C303.5 73.3945 301.4 75.4012 300.1 75.4012C299.4 75.4012 299.1 74.8995 299.8 73.7959L306.2 62.5582H303.2L297.9 71.8895C295.6 73.9965 293.9 75.1002 293.3 74.8995C292.6 74.5985 293.3 73.4948 293.7 72.7925L299.5 62.5582H296.5L291.8 70.6854L291.6 70.8861C290.2 72.3911 288.6 73.0935 287.1 73.0935L289.9 68.177C291.7 65.0666 290 62.0565 287.2 62.0565C284.9 62.0565 283.1 62.9596 281.4 65.9697L279.9 68.5784L278.7 70.6854L278.5 70.8861C276.3 73.3945 273.6 75.4012 271.5 75.4012C269.7 75.4012 268.6 74.1972 269.9 71.7891L270.2 71.2875C272.1 72.0901 275.8 71.6888 278 67.7757L278.4 67.0733C280 64.2639 278.5 62.2572 276 62.2572C273.6 62.2572 271.7 63.5616 270.4 65.769L267.5 70.7858L267.3 70.9864C264.8 73.8962 262.7 75.7022 260.3 76.7056L267 65.167H265.2C265.2 63.9629 263.9 62.2572 262.1 62.2572C260.5 62.2572 258.2 63.5616 257 65.769L254.1 70.7858L253.9 70.9864C251.7 73.4948 249.6 75.5016 248.3 75.5016C247.6 75.5016 247.3 74.9999 248 73.8962L251 68.6787C252 66.8727 251.5 65.769 250.6 64.5649L248.9 62.5582C248.5 62.0565 248.5 61.3542 249.1 60.8525L247.5 59.1468C245.8 60.6518 245.7 62.3576 246.7 63.7623L247 64.0633C245.7 65.9697 243.9 68.478 241.9 70.7858L241.7 70.9864C240.3 72.4915 238.7 73.1938 237.2 73.1938L240 68.2774C241.8 65.167 240.1 62.1569 237.3 62.1569C235 62.1569 233.2 63.0599 231.5 66.07L230 68.6787L228.8 70.7858L228.6 70.9864C226.1 73.8962 224 75.7022 221.6 76.7056L228.3 65.167H226.5C226.5 63.9629 225.2 62.2572 223.4 62.2572C221.8 62.2572 219.5 63.5616 218.3 65.769L214.1 73.0935C212.8 75.3009 213.7 77.4079 216.1 77.4079C216.9 77.4079 217.9 77.0066 219 76.4046L218.2 77.8093C214.2 79.0133 211.6 80.719 211.6 82.9264C211.6 85.8362 216 86.4382 218.2 82.7258L220.5 78.8126C222.9 78.1103 225.2 76.6053 227.7 74.2975C227.7 78.1103 233 78.913 236.2 74.7992H236.9C238.7 74.7992 241.5 73.6955 243 71.8895C244.4 70.1838 245.6 68.6787 248 65.468L248.4 65.9697C248.8 66.4713 248.9 67.0733 248.6 67.6754L245.4 73.1938C244.1 75.4012 245 77.5083 247.4 77.5083C248.9 77.5083 250.6 76.5049 252.2 75.1002C252.2 76.5049 253.1 77.5083 254.8 77.5083C255.6 77.5083 256.6 77.1069 257.7 76.5049L257 77.709C253 78.913 250.4 80.6187 250.4 82.8261C250.4 85.7358 254.8 86.3378 257 82.6254L259.3 78.7123C261.7 77.9096 264.1 76.5049 266.6 74.0969C266.7 76.0032 268.2 77.3076 270.7 77.3076C273.1 77.3076 275.6 75.9029 277.6 74.0969C277.5 78.01 282.9 78.8126 286.1 74.6989H286.8C287.7 74.6989 289 74.3979 290.1 73.7959C289.3 75.9029 290 77.3076 291.7 77.3076C293.3 77.3076 295.2 75.8026 296.6 74.3979C296.3 76.0032 297.3 77.3076 299.2 77.3076C301.7 77.3076 304.5 74.6989 307 71.7891C308.7 69.7824 310.2 67.6754 311.3 66.2707C310.1 69.3811 310.8 74.9999 307.9 74.9999C306.9 74.9999 306.5 73.8962 306.5 73.8962L304.6 74.8995C304.6 74.8995 305.1 77.3076 307.9 77.3076C308.2 77.3076 308.4 77.3076 308.7 77.2073H308.8C311.9 76.8059 314.9 74.3979 317.1 71.7891C317 71.2875 316.5 70.7858 316 70.6854ZM273.1 66.4713C274.8 63.4613 277.9 63.9629 276.1 67.0733L275.7 67.7757C274.3 70.1838 272.3 70.1838 271.2 69.7824L273.1 66.4713ZM215.9 82.1237C215.3 83.2274 214.3 83.1271 214.3 82.2241C214.3 81.4214 215 80.5184 217.3 79.6153L215.9 82.1237ZM217.3 75.4012C216.6 75.4012 216.3 74.8995 217 73.7959L221.2 66.4713C222.8 63.6619 226 64.3643 224.5 67.0733L222.2 71.0868C220.4 73.9965 218.5 75.4012 217.3 75.4012ZM235.7 70.8861H235.6C234.6 70.8861 233.8 71.6888 233.8 72.6922C233.8 73.0935 233.9 73.3945 234.1 73.6955V73.7959C232.7 76.2039 229.3 75.8026 231 72.5918L233.3 68.6787L234.7 66.2707C236.8 62.6586 239.7 64.0633 237.9 67.1737L235.7 70.8861ZM254.5 82.1237C253.9 83.2274 252.9 83.1271 252.9 82.2241C252.9 81.4214 253.6 80.5184 255.9 79.6153L254.5 82.1237ZM255.9 75.4012C255.2 75.4012 254.9 74.8995 255.6 73.7959L259.8 66.4713C261.4 63.6619 264.6 64.3643 263.1 67.0733L260.8 71.0868C259 73.9965 257.1 75.4012 255.9 75.4012ZM285.4 70.8861H285.3C284.3 70.8861 283.5 71.6888 283.5 72.6922C283.5 73.0935 283.6 73.3945 283.8 73.6955V73.7959C282.4 76.2039 279 75.8026 280.7 72.5918L283 68.6787L284.4 66.2707C286.5 62.6586 289.4 64.0633 287.6 67.1737L285.4 70.8861Z" fill="#766458"/>
<path d="M130.3 67.4746H101.4V69.4814H130.3V67.4746Z" fill="#766458"/>
<path d="M357.3 67.4746H328.4V69.4814H357.3V67.4746Z" fill="#766458"/>
<path d="M163.2 0.450165H170.9L169.7 45.501H155.2L153.2 26.9389L151.2 45.501H136.6L135.5 0.450165H143.1L143.7 37.7751H144.5L149.4 0.450165H157L161.9 37.7751H162.7L163.2 0.450165Z" fill="#81B3D3"/>
<path d="M195 37.7751V45.6013H174.1V0.450165H195V8.17603H181.7V19.0123H192.3V26.7382H181.7V37.6748H195V37.7751Z" fill="#81B3D3"/>
<path d="M216.4 37.7751V45.6013H198.1V0.450165H205.7V37.7751H216.4Z" fill="#81B3D3"/>
<path d="M232.6 28.9456L240.3 27.1395V40.7852C240.3 43.3939 238.1 45.501 235.6 45.501H224.1C221.5 45.501 219.4 43.2936 219.4 40.7852V5.16595C219.4 2.55722 221.5 0.450165 224.1 0.450165H235.6C238.1 0.450165 240.3 2.55722 240.3 5.16595V14.2965L232.6 16.1026V8.0757H227.1V37.6748H232.6V28.9456Z" fill="#81B3D3"/>
<path d="M261.1 0.450165C263.6 0.450165 265.8 2.55722 265.8 5.16595V40.6849C265.8 43.2936 263.6 45.4007 261.1 45.4007H249.6C247 45.4007 244.9 43.1933 244.9 40.6849V5.16595C244.9 2.55722 247 0.450165 249.6 0.450165H261.1ZM258.1 8.17603H252.6V37.7751H258.1V8.17603Z" fill="#81B3D3"/>
<path d="M290.8 0.450165H298.4V45.501H290.8V23.3268L287.7 34.7651H280.2L277.2 23.3268V45.501H269.6V0.450165H277.2L284 22.2231L290.8 0.450165Z" fill="#81B3D3"/>
<path d="M323.1 37.7751V45.6013H302.2V0.450165H323.1V8.17603H309.8V19.0123H320.4V26.7382H309.8V37.6748H323.1V37.7751Z" fill="#81B3D3"/>
<path d="M44.5 158.58C40.9 155.569 36.4 153.563 31.6 153.563C28 153.563 23.2999 155.67 23.2999 159.884C23.2999 164.299 28.6 166.004 31.9 167.008L36.9 168.513C47.3 171.623 55.4 176.841 55.4 188.981C55.4 196.406 53.6 204.132 47.7 209.149C41.8 214.166 34 216.172 26.5 216.172C17.1 216.172 7.79995 212.962 0.199951 207.644L8.29995 192.092C13.2 196.406 18.9 199.818 25.6 199.818C30.2 199.818 35 197.51 35 192.292C35 186.774 27.4 184.968 23.2 183.764C11 180.152 2.99995 177.041 2.99995 162.493C2.99995 147.242 13.7999 137.308 28.7999 137.308C36.2999 137.308 45.6 139.716 52.2 143.529L44.5 158.58Z" fill="white"/>
<path d="M91.7999 155.77V168.312H113.7V184.868H91.7999V197.811H115V214.366H72.3999V139.315H115V155.87L91.7999 155.77Z" fill="white"/>
<path d="M129.4 139.315H157C177.8 139.315 195 155.77 195 176.841C195 197.911 177.7 214.366 157 214.366H129.4V139.315ZM148.9 197.811H153.3C164.9 197.811 174.8 191.389 174.8 176.841C174.8 163.396 166 155.87 153.5 155.87H148.9V197.811Z" fill="white"/>
<path d="M286.9 175.436C286.9 199.717 269.5 216.875 245.5 216.875C221.5 216.875 204.1 199.717 204.1 175.436C204.1 152.76 224 136.807 245.5 136.807C267 136.807 286.9 152.76 286.9 175.436ZM224.3 175.536C224.3 188.48 233.8 197.911 245.4 197.911C257 197.911 266.5 188.48 266.5 175.536C266.5 165.202 257 155.67 245.4 155.67C233.9 155.67 224.3 165.202 224.3 175.536Z" fill="white"/>
<path d="M297.2 139.315H316.7L352.3 185.269H352.5V139.315H372V214.366H352.5L316.9 168.312H316.7V214.366H297.2V139.315Z" fill="white"/>
<path d="M407.3 201.323L402.1 214.366H381.5L410.3 139.315H431.5L459.7 214.366H439L434.1 201.323H407.3ZM420.9 162.493H420.7L412.7 186.373H428.9L420.9 162.493Z" fill="white"/>
<path d="M108.1 289.117C115.8 286.508 116.3 276.876 108.8 276.876C106.7 276.876 104.2 278.381 102.5 281.29L92.3 299.05C91.8 299.853 91.4 300.555 90.8 301.257C88.2 297.645 88.9 292.227 92.6 289.819L91.1 287.913C83.1 293.03 85.5 307.679 98.8 307.679C110.1 307.679 115.4 294.033 108.1 289.117ZM98.7 304.769C96.4 304.769 94.7 304.267 93.2 303.465C93.9 302.662 94.5 301.759 95.1 300.756L101.5 289.618L102.5 289.719C111.4 291.625 107.9 304.769 98.7 304.769ZM102.8 287.411L105.9 282.093C108.7 277.277 112.2 280.086 110.3 283.698C108.8 286.508 106.7 287.311 102.8 287.411Z" fill="white"/>
<path d="M140.2 301.458C139.6 303.665 140.8 305.572 143.3 305.572C144.8 305.572 146.7 304.568 148.6 303.063C148.8 304.568 150 305.572 151.9 305.572C153.9 305.572 156.1 304.167 158.3 302.16C157.9 304.167 158.8 305.572 160.7 305.572C162.8 305.572 165.1 303.665 166.9 301.96C166.5 303.966 167.7 305.572 170.1 305.572C173.2 305.572 176.8 302.16 180 298.548C180 298.448 179.9 298.448 179.9 298.348C182 295.939 183.8 293.331 185.2 291.525C183.7 295.438 184.5 302.562 180.9 302.562C179.6 302.562 179.1 301.157 179.1 301.157L176.7 302.361C176.7 302.361 177.4 305.471 180.9 305.471C181.3 305.471 181.6 305.471 182 305.371H182.1C184.9 304.97 187.6 303.264 190 301.157C190.1 303.665 192 305.471 195.1 305.471C199.4 305.471 203.7 302.06 206.8 298.448C206.5 297.946 205.9 297.344 205.4 297.143L205.1 297.444C202.4 300.655 198.9 303.164 196.2 303.164C193.9 303.164 192.5 301.659 194.2 298.649L194.6 297.946C197 298.95 201.6 298.448 204.5 293.531L205 292.628C207 289.117 205.1 286.508 202 286.508C198.9 286.508 196.5 288.113 194.9 290.923L191.2 297.244H191.1L190.8 297.545C189.4 299.15 187.7 300.655 186.2 301.659C187.4 298.047 187.1 292.428 189.5 287.612L186.7 286.107C185.1 288.314 181.7 293.23 178.3 297.244L178.4 297.344L178.3 297.545C175.6 300.756 172.9 303.264 171.2 303.264C170.4 303.264 169.9 302.662 170.8 301.157L178.9 286.909H175.1L168.4 298.749C165.5 301.358 163.3 302.863 162.6 302.562C161.7 302.16 162.6 300.756 163.1 299.953L170.5 287.01H166.7L160.7 297.444C160.6 297.344 160.5 297.344 160.4 297.244L160.1 297.545C157.4 300.756 154.7 303.264 153 303.264C152.2 303.264 151.7 302.662 152.6 301.157L158.7 290.421H156.5C156.6 288.816 155 286.608 152.5 286.608C150.5 286.608 147.6 288.214 146 291.023L142.2 297.645C142 297.444 141.8 297.344 141.6 297.244L141.3 297.545C138.6 300.756 135.1 303.264 132.4 303.264C130.1 303.264 128.7 301.759 130.4 298.749L134.3 291.926C136.5 288.113 140.4 288.816 138.1 292.729L137.6 293.632H140.7L141.2 292.729C143.2 289.217 141.3 286.608 138.2 286.608C135.1 286.608 132.7 288.214 131.1 291.023L127.3 297.545C127.2 297.444 127.1 297.444 127 297.344L126.7 297.645C124 300.856 120.5 303.364 117.8 303.364C115.5 303.364 114.1 301.859 115.8 298.849L116.2 298.147C118.6 299.15 123.2 298.649 126.1 293.732L126.6 292.829C128.6 289.317 126.7 286.709 123.6 286.709C120.5 286.709 118.1 288.314 116.5 291.123L112.5 297.946C110.1 301.96 112.2 305.772 116.7 305.772C120 305.772 123.4 303.766 126.1 301.157C126 303.766 128 305.772 131.2 305.772C134.4 305.572 137.5 303.766 140.2 301.458ZM198.2 291.826C200.4 288.013 204.3 288.715 202 292.628L201.5 293.531C199.7 296.642 197.2 296.541 195.8 296.04L198.2 291.826ZM144 301.157L149.3 291.926C151.3 288.414 155.4 289.317 153.5 292.729L150.5 297.946C148.2 301.558 145.9 303.264 144.4 303.264C143.6 303.164 143.1 302.662 144 301.157ZM119.8 291.826C122 288.013 125.9 288.715 123.6 292.628L123.1 293.531C121.3 296.642 118.8 296.541 117.4 296.04L119.8 291.826Z" fill="white"/>
<path d="M248.4 305.572C252.7 305.572 257 302.16 260.1 298.548C259.8 298.046 259.2 297.444 258.7 297.244L258.4 297.545C255.7 300.756 252.2 303.264 249.5 303.264C247.2 303.264 245.8 301.759 247.5 298.749L247.9 298.046C250.3 299.05 254.9 298.548 257.8 293.632L258.3 292.729C260.3 289.217 258.4 286.608 255.3 286.608C252.2 286.608 249.8 288.214 248.2 291.023L244.5 297.344C244.5 297.344 244.4 297.344 244.4 297.244L244.1 297.545C241.4 300.756 238.7 303.264 237 303.264C236.2 303.264 235.7 302.662 236.6 301.157L242.1 291.525C243.7 288.615 242.2 286.508 240.1 286.508C238.5 286.508 236.7 287.411 234.8 289.418L240.9 278.882H237L226.3 297.444C226.2 297.344 226 297.244 225.9 297.143L225.6 297.444C222.9 300.655 220.2 303.164 218.5 303.164C217.7 303.164 217.2 302.562 218.1 301.057L226.2 286.809H229.3L230.4 285.003H227.3L230.9 278.782H227.1L223.5 285.003H220.1L219 286.809H222.5L214.9 300.053C213.3 302.863 214.4 305.471 217.5 305.471C219.4 305.471 221.4 304.267 223.5 302.461L222 305.07H225.8L231.6 295.036C237.4 287.712 240 288.615 238.4 291.424L233.5 300.053C231.9 302.863 233 305.471 236.1 305.471C238.4 305.471 241 303.665 243.4 301.257C243.4 303.766 245.3 305.572 248.4 305.572ZM251.5 291.826C253.7 288.013 257.6 288.715 255.3 292.628L254.8 293.531C253 296.642 250.5 296.541 249.1 296.04L251.5 291.826Z" fill="white"/>
<path d="M363.4 297.244L363.1 297.545C360.4 300.756 357.7 303.264 356 303.264C355.2 303.264 354.7 302.662 355.6 301.157L368.4 278.882H364.6L359 288.515C358.3 287.411 357.1 286.508 355.5 286.508C353.5 286.508 350.6 288.113 349 290.923L345.3 297.344C345.2 297.344 345.1 297.244 345.1 297.244L344.8 297.545C342.1 300.756 339.4 303.264 337.7 303.264C336.9 303.264 336.4 302.662 337.3 301.157L342.8 291.525C344.4 288.615 342.9 286.508 340.8 286.508C339.2 286.508 337.4 287.411 335.5 289.317L336.9 286.809H333.1L327 297.344C326.9 297.244 326.8 297.143 326.6 297.143L326.3 297.444C323.6 300.655 320.9 303.164 319.2 303.164C318.4 303.164 317.9 302.562 318.8 301.057L324.9 290.321H323C323.1 288.715 321.5 286.508 319 286.508C317 286.508 314.1 288.113 312.5 290.923L308.8 297.244L308.6 297.444C305.9 300.655 303.2 303.164 301.5 303.164C300.7 303.164 300.2 302.562 301.1 301.057L304.9 294.434C306.2 292.127 305.6 290.822 304.4 289.317L302.3 286.709C301.8 286.006 301.8 285.204 302.5 284.501L300.5 282.294C298.3 284.2 298.2 286.408 299.5 288.113L299.8 288.515C298.1 290.923 295.9 294.133 293.4 297.043C293.5 297.143 293.6 297.244 293.7 297.344C290.6 300.956 287.9 303.264 284.9 304.568L289.7 296.341H286L285.6 297.043C283.6 300.555 281.3 303.164 278.3 303.164C275.7 303.164 275.2 300.555 277.5 296.642L278.6 294.735C279.3 294.836 280 294.936 280.8 294.936C294.3 294.936 300.8 276.775 288.9 276.775C286.8 276.775 284.3 278.28 282.6 281.19L276.7 291.424C274.5 290.22 273.3 288.113 273.3 286.006C273.3 284.2 274.1 282.494 275.7 281.19L274.5 278.983C271.8 280.889 270.6 283.498 270.6 286.107C270.6 289.117 272.3 292.026 275.4 293.632L274.3 295.638C271.6 300.254 272.1 305.371 277.5 305.371C279.1 305.371 280.5 304.869 281.6 304.167L280.6 305.873C275.5 307.478 272.3 309.485 272.3 312.395C272.3 316.007 277.9 316.809 280.6 312.094L283.5 307.077C287.4 305.873 291.3 303.164 295.5 298.247C295.4 298.147 295.4 298.046 295.3 297.846C297 295.839 298.4 293.933 301.3 290.02L301.8 290.622C302.3 291.224 302.5 292.026 302 292.829L298 299.853C296.4 302.662 297.5 305.271 300.6 305.271C302.5 305.271 304.6 304.067 306.6 302.261C306.6 303.966 307.7 305.271 309.9 305.271C311.4 305.271 313.3 304.267 315.2 302.762C315.4 304.267 316.6 305.271 318.5 305.271C320.3 305.271 322.3 304.167 324.2 302.461L322.8 304.869H326.6L332.4 294.735C338.2 287.411 340.8 288.414 339.1 291.224L334.2 299.853C332.6 302.662 333.7 305.271 336.8 305.271C338.8 305.271 341 303.866 343.2 301.96C343 303.866 344.2 305.271 346.5 305.271C348 305.271 349.9 304.267 351.8 302.762C352 304.267 353.2 305.271 355.1 305.271C358.2 305.271 361.8 301.859 365 298.247C364.6 298.046 363.9 297.444 363.4 297.244ZM285.5 282.996C286.6 281.09 287.9 280.187 288.9 280.187C294.9 280.187 290.7 292.528 280.8 292.528H280L285.5 282.996ZM277.4 311.692C276.6 313.097 275.3 312.896 275.3 311.893C275.3 310.889 276.2 309.786 279.1 308.682L277.4 311.692ZM317.1 297.846C314.8 301.458 312.5 303.164 311 303.164C310.2 303.164 309.7 302.562 310.6 301.057L315.9 291.826C317.9 288.314 322 289.217 320.1 292.628L317.1 297.846ZM353.8 297.645C351.5 301.458 349.2 303.164 347.6 303.164C346.8 303.164 346.3 302.562 347.2 301.057L352.5 291.826C354.5 288.314 358.6 289.217 356.7 292.628L353.8 297.645Z" fill="white"/>
<path d="M236.7 333.365L236.4 333.666C233.7 336.877 231 339.385 229.3 339.385C228.5 339.385 228 338.783 228.9 337.278L234.4 327.646C236 324.736 234.5 322.629 232.4 322.629C230.8 322.629 229 323.532 227.1 325.438L228.5 322.93H224.7L218.6 333.565C218.4 333.465 218.3 333.365 218.1 333.264L217.8 333.565C216.1 335.472 214 336.375 212.1 336.375L215.7 330.154C218 326.141 215.9 322.428 212.3 322.428C209.4 322.428 207.1 323.632 204.9 327.445L203 330.656L201.4 333.465C201.3 333.365 201.2 333.365 201.1 333.264L200.8 333.565C197.7 337.178 195 339.485 192 340.79L202.4 322.93H198.6L191.9 334.669C189 337.378 186.7 338.883 186 338.582C185.1 338.181 186 336.776 186.5 335.973L193.9 323.03H190.1L184 333.565C183.9 333.465 183.8 333.465 183.7 333.365L183.4 333.666C180.7 336.877 178 339.385 176.3 339.385C175.5 339.385 175 338.783 175.9 337.278L181.4 327.646C183 324.736 181.5 322.629 179.4 322.629C177.8 322.629 176 323.532 174.1 325.438L175.5 322.93H171.7L165.6 333.465C165.5 333.365 165.4 333.264 165.2 333.264L164.9 333.565C162.2 336.776 159.5 339.285 157.8 339.285C157 339.285 156.5 338.683 157.4 337.178L163.5 326.442H161.3C161.4 324.836 159.8 322.629 157.3 322.629C155.3 322.629 152.4 324.234 150.8 327.044L146.9 333.866C146.6 333.666 146.3 333.465 146.1 333.365L145.8 333.666C143.1 336.877 139.7 339.385 136 339.385C133.4 339.385 131.8 336.776 134.1 332.863L135.2 330.957C135.9 331.057 136.6 331.157 137.4 331.157C141.4 331.157 146 329.05 149 323.833C150.1 321.926 150.5 320.221 150.5 318.716C150.5 315.304 148.3 312.997 145.5 312.997C143.4 312.997 140.9 314.502 139.2 317.411L133.3 327.646C131.1 326.442 129.9 324.335 129.9 322.227C129.9 320.421 130.7 318.716 132.3 317.411L131.1 315.204C128.4 317.11 127.2 319.719 127.2 322.328C127.2 325.338 128.9 328.248 132 329.853L130.9 331.86C128.2 336.475 129.8 341.592 135.2 341.592C139.4 341.592 142.6 339.686 145.2 337.178C144.4 339.586 145.6 341.592 148.3 341.592C149.8 341.592 151.7 340.589 153.6 339.084C153.8 340.589 155 341.592 156.9 341.592C158.7 341.592 160.7 340.489 162.6 338.783L161.2 341.191H165L170.8 331.057C176.6 323.732 179.2 324.736 177.5 327.545L172.6 336.174C171 338.984 172.1 341.592 175.2 341.592C177.2 341.592 179.5 340.188 181.7 338.181C181.2 340.288 182.2 341.592 184.1 341.592C185.9 341.592 188 340.087 189.7 338.482L187.6 342.094C182.5 343.599 179.2 345.706 179.2 348.616C179.2 352.228 184.8 353.031 187.5 348.315L190.4 343.298C193.6 342.295 196.7 340.288 200 337.077C199.5 342.395 206.5 343.599 210.8 338.181H211.6C213 338.181 214.9 337.679 216.6 336.676L214.1 341.091H217.9L223.7 330.957C229.5 323.632 232.1 324.636 230.4 327.445L225.5 336.074C223.9 338.883 225 341.492 228.1 341.492C231.2 341.492 234.8 338.081 238 334.468C237.9 334.167 237.2 333.565 236.7 333.365ZM142.3 319.117C143.4 317.211 144.7 316.308 145.7 316.308C147.1 316.308 147.8 317.211 147.8 318.615C147.8 322.127 143.5 328.549 137.6 328.549H136.8L142.3 319.117ZM155.7 333.967C153.4 337.579 151.1 339.285 149.6 339.285C148.8 339.285 148.3 338.683 149.2 337.178L154.5 327.947C156.5 324.435 160.6 325.338 158.7 328.749L155.7 333.967ZM184.5 347.813C183.7 349.218 182.4 349.017 182.4 348.014C182.4 347.01 183.3 345.907 186.2 344.803L184.5 347.813ZM210.1 333.565H209.9C208.7 333.565 207.7 334.569 207.7 335.873C207.7 336.375 207.8 336.776 208.1 337.178V337.278C206.3 340.388 202 339.786 204.2 335.773L207.1 330.756L208.9 327.646C211.6 323.13 215.2 324.937 212.9 328.85L210.1 333.565Z" fill="white"/>
<path d="M324.6 334.669C324.4 334.067 323.7 333.465 323.2 333.365L322.9 333.666C321.5 335.271 319.8 336.776 318.3 337.78C319.5 334.167 319.2 328.549 321.6 323.733L318.8 322.227C317.2 324.435 313.8 329.351 310.4 333.365L310.1 333.666C307.4 336.877 304.7 339.385 303 339.385C302.2 339.385 301.4 338.582 301.4 336.776V335.171C304.1 335.472 306.9 333.766 308.7 330.656L309.7 328.85C313.2 322.729 307.5 320.722 303.6 324.334L309 314.903H305.2L294.4 333.766C294.2 333.565 293.9 333.365 293.7 333.264L293.4 333.565C290.7 336.776 287.2 339.285 284.5 339.285C282.2 339.285 280.8 337.78 282.5 334.769L286.4 327.947C288.6 324.134 292.5 324.836 290.2 328.749L289.7 329.652H292.8L293.3 328.749C295.3 325.238 293.4 322.629 290.3 322.629C287.2 322.629 284.8 324.234 283.2 327.044L279.5 333.465C279.4 333.465 279.3 333.365 279.3 333.365L279 333.666C276.3 336.877 273.6 339.385 271.9 339.385C271.1 339.385 270.6 338.783 271.5 337.278L279.6 323.03H275.8L269.1 334.87C266.2 337.479 264 338.984 263.3 338.683C262.4 338.281 263.3 336.877 263.8 336.074L271.2 323.13H267.4L260 335.873C259.2 336.575 258.3 337.278 257.6 337.88C258.8 334.268 258.5 328.649 260.9 323.833L258.1 322.328C256.5 324.535 247.8 336.174 244.3 340.188C244.6 340.689 245.2 341.091 245.7 341.492C247.9 338.984 255.1 329.652 256.4 327.846C254.9 331.759 255.7 338.883 252.1 338.883C250.8 338.883 250.3 337.479 250.3 337.479L247.9 338.683C247.9 338.683 248.6 341.793 252.1 341.793C252.5 341.793 252.8 341.793 253.2 341.693H253.3C255.2 341.392 257.1 340.589 258.9 339.285C258.9 340.79 259.8 341.793 261.4 341.793C263.5 341.793 265.8 339.887 267.6 338.181C267.2 340.188 268.4 341.793 270.8 341.793C273.2 341.793 275.8 339.887 278.3 337.378C278.3 339.887 280.3 341.793 283.4 341.793C286.5 341.793 289.5 340.087 292.2 337.78L290.1 341.492H293.9L298.2 333.967V336.977C298.2 340.188 298.8 341.893 301.9 341.893C305 341.893 308.6 338.482 311.8 334.87C314 332.361 315.8 329.753 317.2 327.947C315.7 331.86 316.5 338.984 312.9 338.984C311.6 338.984 311.1 337.579 311.1 337.579L308.7 338.783C308.7 338.783 309.4 341.893 312.9 341.893C313.3 341.893 313.6 341.893 314 341.793H314.1C317.9 341.091 321.8 337.98 324.6 334.669ZM299.4 331.659L300.5 329.753C304.9 323.632 307.9 325.338 306.5 327.646L304.7 330.756C303.6 332.763 300.3 334.167 299.4 331.659Z" fill="white"/>
<path d="M324.5 337.278C323.3 337.278 322.3 338.281 322.3 339.485C322.3 340.689 323.2 341.693 324.5 341.693C325.7 341.693 326.7 340.79 326.7 339.485C326.7 338.281 325.7 337.278 324.5 337.278Z" fill="white"/>
<path d="M324.7 335.773H328.5L340.4 315.003H336.6L324.7 335.773Z" fill="white"/>
<path d="M80.4 278.983C80.4 279.284 80.3 279.585 80.2 279.886C80.1 280.187 79.9 280.488 79.7 280.688C79.5 280.889 79.2 281.09 78.9 281.29C78.6 281.391 78.2 281.491 77.8 281.491C77.3 281.491 76.9 281.391 76.5 281.19C76.1 280.989 75.7 280.789 75.4 280.488C75.1 280.187 75 279.886 74.8 279.484C74.7 279.083 74.6 278.682 74.6 278.18C74.6 277.277 74.8 276.575 75.1 275.772C75.4 275.07 75.8 274.367 76.4 273.866C76.6 273.665 76.9 273.364 77.2 273.163C77.5 272.963 77.8 272.762 78.1 272.662C78.4 272.561 78.6 272.361 78.8 272.26C79 272.16 79.1 272.16 79.2 272.06L80.6 274.066C80.4 274.167 80.1 274.267 79.8 274.468C79.5 274.568 79.2 274.769 78.9 274.969C78.6 275.17 78.4 275.471 78.2 275.772C78 276.073 77.9 276.374 77.9 276.775C78.6 276.775 79.1 276.976 79.6 277.377C80.2 277.678 80.4 278.28 80.4 278.983ZM88.3 278.983C88.3 279.284 88.2 279.585 88.1 279.886C88 280.187 87.8 280.488 87.6 280.688C87.4 280.889 87.1 281.09 86.8 281.29C86.5 281.391 86.1 281.491 85.7 281.491C85.2 281.491 84.8 281.391 84.4 281.19C84 280.989 83.6 280.789 83.3 280.488C83.1 280.187 82.9 279.886 82.7 279.484C82.6 279.083 82.5 278.682 82.5 278.18C82.5 277.277 82.7 276.575 83 275.772C83.3 275.07 83.7 274.367 84.3 273.866C84.5 273.665 84.8 273.364 85.1 273.163C85.4 272.963 85.7 272.762 86 272.662C86.3 272.561 86.5 272.361 86.7 272.26C86.9 272.16 87 272.16 87.1 272.06L88.5 274.066C88.3 274.167 88 274.267 87.7 274.468C87.4 274.568 87.1 274.769 86.8 274.969C86.5 275.17 86.3 275.471 86.1 275.772C85.9 276.073 85.8 276.374 85.8 276.775C86.5 276.775 87 276.976 87.5 277.377C88 277.678 88.3 278.28 88.3 278.983Z" fill="white"/>
<path d="M353.4 338.081C353.4 337.78 353.5 337.479 353.6 337.178C353.7 336.877 353.9 336.576 354.1 336.375C354.3 336.174 354.6 335.974 354.9 335.773C355.2 335.673 355.6 335.572 356 335.572C356.5 335.572 356.9 335.673 357.3 335.873C357.7 336.074 358.1 336.275 358.4 336.576C358.7 336.877 358.8 337.178 359 337.579C359.1 337.98 359.2 338.382 359.2 338.883C359.2 339.786 359 340.489 358.7 341.291C358.4 341.994 358 342.696 357.4 343.198C357.2 343.398 356.9 343.699 356.6 343.9C356.3 344.101 356 344.301 355.7 344.402C355.4 344.502 355.2 344.703 355 344.803C354.8 344.903 354.7 344.903 354.6 345.004L353.2 342.997C353.4 342.897 353.7 342.796 354 342.596C354.3 342.495 354.6 342.295 354.9 342.094C355.2 341.893 355.4 341.592 355.6 341.291C355.8 340.99 355.9 340.689 355.9 340.288C355.2 340.288 354.7 340.087 354.2 339.686C353.7 339.385 353.4 338.783 353.4 338.081ZM345.6 338.081C345.6 337.78 345.7 337.479 345.8 337.178C345.9 336.877 346.1 336.576 346.3 336.375C346.5 336.174 346.8 335.974 347.1 335.773C347.4 335.673 347.8 335.572 348.2 335.572C348.7 335.572 349.1 335.673 349.5 335.873C349.9 336.074 350.3 336.275 350.6 336.576C350.8 336.877 351 337.178 351.2 337.579C351.3 337.98 351.4 338.382 351.4 338.883C351.4 339.786 351.2 340.489 350.9 341.291C350.6 341.994 350.2 342.696 349.6 343.198C349.4 343.398 349.1 343.699 348.8 343.9C348.5 344.101 348.2 344.301 347.9 344.402C347.6 344.502 347.4 344.703 347.2 344.803C347 344.903 346.9 344.903 346.8 345.004L345.4 342.997C345.7 342.897 345.9 342.796 346.2 342.596C346.5 342.495 346.8 342.295 347.1 342.094C347.4 341.893 347.6 341.592 347.8 341.291C348 340.99 348.1 340.689 348.1 340.288C347.4 340.288 346.9 340.087 346.4 339.686C345.8 339.385 345.6 338.783 345.6 338.081Z" fill="white"/>
</svg>
